<?xml version="1.0" encoding="UTF-8" standalone="no"?>
<!DOCTYPE svg PUBLIC "-//W3C//DTD SVG 1.1//EN" "http://www.w3.org/Graphics/SVG/1.1/DTD/svg11.dtd">
<svg xmlns="http://www.w3.org/2000/svg" version="1.1" viewBox="0.00 0.00 447.00 447.00">
<g stroke-width="2.00" fill="none" stroke-linecap="butt">
<path stroke="#80aac0" vector-effect="non-scaling-stroke" d="
  M 133.83 167.19
  Q 137.12 167.18 137.30 167.19
  A 1.04 1.03 -13.7 0 1 138.34 167.81
  L 139.54 170.66
  A 0.80 0.79 78.1 0 0 140.27 171.14
  L 140.57 171.14
  A 0.71 0.71 0.0 0 0 141.24 170.20
  Q 138.33 161.78 135.66 154.36
  Q 135.04 152.63 133.77 152.64
  Q 132.54 152.64 131.92 154.37
  Q 129.30 161.81 126.45 170.25
  A 0.71 0.71 0.0 0 0 127.12 171.18
  L 127.42 171.18
  A 0.80 0.79 -78.5 0 0 128.15 170.70
  L 129.33 167.84
  A 1.04 1.03 13.4 0 1 130.36 167.21
  Q 130.54 167.20 133.83 167.19"
/>
<path stroke="#80aac0" vector-effect="non-scaling-stroke" d="
  M 70.01 167.22
  Q 73.26 167.22 73.44 167.23
  A 1.03 1.02 -13.6 0 1 74.47 167.85
  L 75.65 170.67
  A 0.79 0.79 0.0 0 0 76.37 171.15
  L 76.66 171.15
  A 0.70 0.70 0.0 0 0 77.33 170.22
  Q 74.48 161.88 71.86 154.53
  Q 71.25 152.82 69.99 152.82
  Q 68.77 152.82 68.16 154.53
  Q 65.54 161.88 62.69 170.22
  A 0.70 0.70 0.0 0 0 63.36 171.15
  L 63.66 171.15
  A 0.79 0.79 0.0 0 0 64.38 170.67
  L 65.55 167.85
  A 1.03 1.02 13.6 0 1 66.58 167.23
  Q 66.76 167.22 70.01 167.22"
/>
<path stroke="#80aac0" vector-effect="non-scaling-stroke" d="
  M 171.22 161.88
  Q 171.21 169.62 171.21 170.21
  A 0.73 0.73 0.0 0 0 171.94 170.94
  L 181.40 170.94
  A 0.81 0.81 0.0 0 0 182.21 170.13
  L 182.21 169.78
  A 0.74 0.74 0.0 0 0 181.47 169.04
  L 173.93 169.04
  A 0.80 0.79 -0.0 0 1 173.13 168.25
  L 173.13 163.65
  A 0.88 0.88 0.0 0 1 174.06 162.77
  Q 182.23 163.27 182.02 161.91
  Q 182.23 160.52 174.07 161.00
  A 0.88 0.88 0.0 0 1 173.13 160.12
  L 173.14 155.52
  A 0.80 0.79 0.1 0 1 173.94 154.73
  L 181.48 154.75
  A 0.74 0.74 0.0 0 0 182.23 154.01
  L 182.23 153.66
  A 0.81 0.81 0.0 0 0 181.42 152.85
  L 171.96 152.83
  A 0.73 0.73 0.0 0 0 171.23 153.56
  Q 171.23 154.14 171.22 161.88"
/>
<path stroke="#80aac0" vector-effect="non-scaling-stroke" d="
  M 197.45 162.45
  Q 201.62 169.59 201.97 170.06
  Q 203.03 171.51 204.64 171.08
  A 1.22 1.22 0.0 0 0 205.55 169.90
  L 205.55 153.60
  A 0.74 0.74 0.0 0 0 204.81 152.86
  L 204.47 152.86
  A 0.81 0.81 0.0 0 0 203.66 153.67
  L 203.66 168.04
  A 0.39 0.39 0.0 0 1 203.10 168.39
  Q 202.80 168.25 202.54 167.77
  Q 200.77 164.55 198.99 161.50
  Q 194.83 154.36 194.48 153.89
  Q 193.42 152.44 191.81 152.87
  A 1.22 1.22 0.0 0 0 190.90 154.05
  L 190.90 170.35
  A 0.74 0.74 0.0 0 0 191.64 171.09
  L 191.98 171.09
  A 0.81 0.81 0.0 0 0 192.79 170.28
  L 192.79 155.91
  A 0.39 0.39 0.0 0 1 193.35 155.56
  Q 193.65 155.70 193.91 156.18
  Q 195.68 159.40 197.45 162.45"
/>
<path stroke="#80aac0" vector-effect="non-scaling-stroke" d="
  M 221.35 167.10
  Q 224.61 167.09 224.79 167.10
  A 1.03 1.02 -13.7 0 1 225.81 167.72
  L 227.00 170.54
  A 0.79 0.79 0.0 0 0 227.73 171.02
  L 228.02 171.02
  A 0.70 0.70 0.0 0 0 228.69 170.09
  Q 225.81 161.74 223.16 154.38
  Q 222.55 152.67 221.32 152.67
  Q 220.07 152.68 219.46 154.39
  Q 216.86 161.76 214.02 170.13
  A 0.70 0.70 0.0 0 0 214.69 171.05
  L 214.99 171.05
  A 0.79 0.79 0.0 0 0 215.71 170.57
  L 216.88 167.74
  A 1.03 1.02 13.4 0 1 217.91 167.12
  Q 218.09 167.11 221.35 167.10"
/>
<path stroke="#80aac0" vector-effect="non-scaling-stroke" d="
  M 272.41 161.87
  Q 272.45 169.64 272.45 170.23
  A 0.74 0.73 89.7 0 0 273.19 170.96
  L 282.69 170.90
  A 0.81 0.81 0.0 0 0 283.50 170.09
  L 283.49 169.73
  A 0.74 0.74 0.0 0 0 282.75 169.00
  L 275.18 169.04
  A 0.80 0.79 -0.3 0 1 274.37 168.25
  L 274.34 163.63
  A 0.89 0.88 -88.6 0 1 275.28 162.74
  Q 283.47 163.20 283.26 161.83
  Q 283.46 160.44 275.27 160.97
  A 0.89 0.88 88.1 0 1 274.33 160.09
  L 274.31 155.47
  A 0.80 0.79 -0.2 0 1 275.11 154.67
  L 282.68 154.64
  A 0.74 0.74 0.0 0 0 283.42 153.90
  L 283.42 153.55
  A 0.81 0.81 0.0 0 0 282.60 152.74
  L 273.10 152.77
  A 0.74 0.73 89.7 0 0 272.37 153.51
  Q 272.38 154.10 272.41 161.87"
/>
<path stroke="#80aac0" vector-effect="non-scaling-stroke" d="
  M 306.88 153.68
  A 0.93 0.93 0.0 0 0 305.95 152.75
  L 305.89 152.75
  A 0.93 0.93 0.0 0 0 304.96 153.68
  L 304.96 170.20
  A 0.93 0.93 0.0 0 0 305.89 171.13
  L 305.95 171.13
  A 0.93 0.93 0.0 0 0 306.88 170.20
  L 306.88 153.68"
/>
<path stroke="#80aac0" vector-effect="non-scaling-stroke" d="
  M 323.07 162.55
  Q 327.26 169.65 327.61 170.13
  Q 328.67 171.57 330.28 171.13
  A 1.22 1.22 0.0 0 0 331.18 169.95
  L 331.11 153.69
  A 0.74 0.74 0.0 0 0 330.37 152.95
  L 330.03 152.95
  A 0.81 0.81 0.0 0 0 329.23 153.76
  L 329.29 168.10
  A 0.39 0.39 0.0 0 1 328.73 168.45
  Q 328.43 168.32 328.16 167.84
  Q 326.39 164.63 324.60 161.60
  Q 320.42 154.49 320.07 154.02
  Q 319.00 152.58 317.40 153.01
  A 1.22 1.22 0.0 0 0 316.50 154.19
  L 316.56 170.46
  A 0.74 0.74 0.0 0 0 317.30 171.19
  L 317.64 171.19
  A 0.81 0.81 0.0 0 0 318.45 170.38
  L 318.39 156.04
  A 0.39 0.39 0.0 0 1 318.95 155.69
  Q 319.25 155.83 319.51 156.31
  Q 321.29 159.51 323.07 162.55"
/>
<path stroke="#80aac0" vector-effect="non-scaling-stroke" d="
  M 365.7855 153.7084
  A 0.89 0.89 0.0 0 0 364.8940 152.8200
  L 364.8540 152.8200
  A 0.89 0.89 0.0 0 0 363.9655 153.7116
  L 363.9945 170.3116
  A 0.89 0.89 0.0 0 0 364.8860 171.2000
  L 364.9260 171.2000
  A 0.89 0.89 0.0 0 0 365.8145 170.3084
  L 365.7855 153.7084"
/>
<path stroke="#80aac0" vector-effect="non-scaling-stroke" d="
  M 381.67 167.20
  Q 384.92 167.20 385.10 167.21
  A 1.03 1.01 -13.5 0 1 386.12 167.83
  L 387.30 170.65
  A 0.79 0.79 0.0 0 0 388.02 171.13
  L 388.31 171.13
  A 0.70 0.70 0.0 0 0 388.98 170.20
  Q 386.13 161.86 383.52 154.52
  Q 382.91 152.81 381.69 152.80
  Q 380.44 152.80 379.83 154.51
  Q 377.21 161.86 374.35 170.19
  A 0.70 0.70 0.0 0 0 375.01 171.12
  L 375.31 171.12
  A 0.79 0.79 0.0 0 0 376.03 170.64
  L 377.21 167.82
  A 1.03 1.01 13.6 0 1 378.23 167.20
  Q 378.41 167.20 381.67 167.20"
/>
<path stroke="#80aac0" vector-effect="non-scaling-stroke" d="
  M 41.64 162.29
  C 41.76 166.25 41.17 171.25 46.72 171.12
  Q 51.13 171.02 53.09 170.77
  Q 55.45 170.48 55.41 165.83
  A 0.96 0.96 0.0 0 0 54.44 164.88
  L 54.40 164.88
  A 0.98 0.97 -89.4 0 0 53.44 165.83
  Q 53.35 168.25 52.74 168.89
  A 0.93 0.91 20.8 0 1 52.10 169.17
  L 46.15 169.41
  A 2.05 2.05 0.0 0 1 44.03 167.62
  Q 43.73 165.25 43.63 162.22
  Q 43.54 159.20 43.70 156.82
  A 2.05 2.05 0.0 0 1 45.70 154.90
  L 51.66 154.77
  A 0.93 0.91 -24.3 0 1 52.31 155.01
  Q 52.96 155.61 53.20 158.02
  A 0.98 0.97 85.8 0 0 54.22 158.91
  L 54.26 158.91
  A 0.96 0.96 0.0 0 0 55.17 157.90
  Q 54.92 153.26 52.55 153.11
  Q 50.57 152.98 46.17 153.15
  C 40.62 153.37 41.52 158.32 41.64 162.29"
/>
<path stroke="#80aac0" vector-effect="non-scaling-stroke" d="
  M 86.27 152.99
  A 0.48 0.47 0.0 0 0 85.79 153.46
  L 85.79 170.26
  A 0.79 0.79 0.0 0 0 86.58 171.05
  L 86.90 171.05
  A 0.72 0.72 0.0 0 0 87.62 170.33
  L 87.62 164.99
  A 1.14 1.14 0.0 0 1 88.76 163.85
  L 94.68 163.85
  A 2.19 2.19 0.0 0 1 96.87 166.04
  L 96.87 170.45
  A 0.78 0.78 0.0 0 0 98.41 170.60
  Q 99.17 166.57 97.78 163.36
  A 1.05 1.04 -42.2 0 1 97.83 162.44
  Q 100.18 158.18 97.85 154.09
  A 2.19 2.19 0.0 0 0 95.95 152.99
  L 86.27 152.99"
/>
<path stroke="#80aac0" vector-effect="non-scaling-stroke" d="
  M 113.03 171.21
  Q 114.07 171.21 114.08 168.75
  Q 114.08 155.98 114.09 155.62
  A 0.64 0.63 -2.1 0 1 114.72 154.95
  L 118.78 154.90
  A 1.05 1.05 0.0 0 0 119.79 154.09
  L 119.79 154.07
  A 0.75 0.75 0.0 0 0 119.14 153.16
  Q 115.98 152.85 113.09 152.94
  Q 110.20 152.83 107.05 153.12
  A 0.75 0.75 0.0 0 0 106.39 154.03
  L 106.39 154.05
  A 1.05 1.05 0.0 0 0 107.39 154.86
  L 111.45 154.94
  A 0.64 0.63 2.5 0 1 112.08 155.61
  Q 112.08 155.97 112.01 168.74
  Q 111.99 171.20 113.03 171.21"
/>
<path stroke="#80aac0" vector-effect="non-scaling-stroke" d="
  M 249.93 153.74
  L 249.91 170.22
  A 0.80 0.80 0.0 0 0 250.70 171.02
  L 258.59 171.03
  A 5.80 5.57 -89.9 0 0 264.17 165.24
  L 264.19 158.76
  A 5.80 5.57 -89.9 0 0 258.63 152.95
  L 250.74 152.94
  A 0.80 0.80 0.0 0 0 249.93 153.74"
/>
<path stroke="#80aac0" vector-effect="non-scaling-stroke" d="
  M 340.91 153.64
  L 340.79 170.24
  A 0.72 0.72 0.0 0 0 341.51 170.97
  L 349.74 171.02
  A 5.60 5.05 -89.6 0 0 354.83 165.46
  L 354.87 158.62
  A 5.60 5.05 -89.6 0 0 349.86 152.98
  L 341.63 152.93
  A 0.72 0.72 0.0 0 0 340.91 153.64"
/>
<path stroke="#80aac0" vector-effect="non-scaling-stroke" d="
  M 396.78 165.77
  Q 396.55 168.95 397.73 169.98
  C 399.39 171.42 402.94 171.26 405.04 171.13
  C 409.58 170.83 409.37 168.10 409.41 164.64
  C 409.45 160.41 403.66 161.09 400.65 160.72
  A 2.35 2.35 0.0 0 1 398.64 158.86
  Q 398.30 157.20 398.96 155.49
  A 1.06 1.06 0.0 0 1 399.95 154.81
  L 405.80 154.81
  A 1.26 1.26 0.0 0 1 407.04 155.83
  L 407.42 157.76
  A 0.73 0.73 0.0 0 0 408.84 157.83
  Q 409.51 155.47 407.97 153.61
  A 1.18 1.16 -19.3 0 0 407.06 153.18
  L 399.26 153.18
  A 1.99 1.97 -78.1 0 0 397.45 154.37
  C 396.15 157.31 395.94 162.32 400.36 162.64
  Q 404.89 162.98 405.61 162.96
  A 1.95 1.95 0.0 0 1 407.63 164.95
  L 407.60 167.10
  A 2.20 2.20 0.0 0 1 405.40 169.27
  L 399.93 169.27
  A 1.17 1.17 0.0 0 1 398.78 168.32
  L 398.26 165.68
  A 0.75 0.75 0.0 0 0 396.78 165.77"
/>
<path stroke="#80aac0" vector-effect="non-scaling-stroke" d="
  M 161.34 164.45
  Q 161.37 166.73 160.80 168.05
  A 1.87 1.86 -83.8 0 1 159.45 169.14
  Q 158.03 169.41 154.00 169.30
  Q 150.85 169.21 150.75 166.00
  C 150.65 162.53 150.45 158.91 150.94 156.70
  Q 151.39 154.69 154.23 154.80
  Q 159.51 155.01 159.77 155.04
  A 1.22 1.20 79.7 0 1 160.65 155.66
  Q 161.06 156.42 161.06 157.58
  A 1.08 1.07 -85.1 0 0 161.94 158.63
  L 161.98 158.64
  A 0.88 0.88 0.0 0 0 163.01 157.90
  Q 163.29 155.81 162.11 153.76
  A 1.15 1.13 75.0 0 0 161.12 153.18
  L 152.09 153.18
  A 1.18 1.14 -58.2 0 0 151.54 153.32
  Q 149.17 154.59 148.97 157.53
  Q 148.74 160.77 148.92 165.97
  Q 149.09 170.85 153.54 171.14
  C 160.41 171.58 164.07 170.92 163.11 162.80
  A 0.71 0.70 -3.2 0 0 162.41 162.18
  L 156.00 162.18
  A 0.52 0.52 0.0 0 0 155.48 162.70
  L 155.48 163.11
  A 0.76 0.76 0.0 0 0 156.24 163.87
  L 160.75 163.87
  A 0.59 0.59 0.0 0 1 161.34 164.45"
/>
<path stroke="#80aac0" vector-effect="non-scaling-stroke" d="
  M 93.26 230.84
  Q 97.02 230.83 103.89 230.84
  A 0.81 0.81 0.0 0 1 104.64 231.33
  L 111.48 247.30
  A 1.78 1.77 -11.6 0 0 113.11 248.37
  L 118.18 248.37
  A 0.80 0.80 0.0 0 0 118.92 247.25
  Q 105.88 217.68 93.57 189.67
  Q 93.49 189.49 93.24 189.49
  Q 92.98 189.49 92.91 189.67
  Q 80.63 217.70 67.63 247.28
  A 0.80 0.80 0.0 0 0 68.37 248.40
  L 73.44 248.40
  A 1.78 1.77 11.5 0 0 75.07 247.32
  L 81.89 231.35
  A 0.81 0.81 0.0 0 1 82.64 230.86
  Q 89.51 230.84 93.26 230.84"
/>
<path stroke="#80aac0" vector-effect="non-scaling-stroke" d="
  M 191.25 250.39
  Q 191.31 250.39 191.35 250.38
  A 0.22 0.15 -0.5 0 0 191.51 250.27
  Q 199.64 231.63 208.39 211.33
  Q 208.55 210.97 208.74 210.79
  A 0.27 0.26 62.2 0 1 209.18 210.93
  L 216.51 248.46
  A 0.18 0.17 -3.6 0 0 216.69 248.61
  L 222.73 248.61
  A 0.22 0.21 84.5 0 0 222.94 248.35
  L 211.58 190.17
  A 0.33 0.33 0.0 0 0 210.96 190.11
  Q 207.23 199.00 191.66 235.71
  Q 191.50 236.09 191.25 236.09
  Q 191.00 236.09 190.83 235.71
  Q 175.28 199.00 171.55 190.10
  A 0.33 0.33 0.0 0 0 170.93 190.16
  L 159.55 248.34
  A 0.22 0.21 -84.4 0 0 159.76 248.60
  L 165.80 248.60
  A 0.18 0.17 3.6 0 0 165.98 248.45
  L 173.32 210.92
  A 0.27 0.26 -62.2 0 1 173.76 210.78
  Q 173.95 210.96 174.11 211.32
  Q 182.86 231.63 190.98 250.27
  A 0.22 0.15 0.5 0 0 191.14 250.38
  Q 191.18 250.39 191.25 250.39"
/>
<path stroke="#428b57" vector-effect="non-scaling-stroke" d="
  M 289.76 248.35
  Q 290.81 248.35 292.55 248.36
  A 0.72 0.72 0.0 0 0 293.27 247.64
  L 293.27 198.18
  A 0.65 0.65 0.0 0 1 293.92 197.53
  L 308.65 197.53
  A 0.97 0.97 0.0 0 0 309.62 196.56
  L 309.62 191.96
  A 0.86 0.85 -89.8 0 0 308.77 191.10
  Q 299.44 191.00 289.77 190.97
  Q 280.10 191.00 270.77 191.10
  A 0.86 0.85 89.8 0 0 269.92 191.96
  L 269.92 196.56
  A 0.97 0.97 0.0 0 0 270.89 197.53
  L 285.62 197.53
  A 0.65 0.65 0.0 0 1 286.27 198.18
  L 286.26 247.64
  A 0.72 0.72 0.0 0 0 286.98 248.36
  Q 288.72 248.35 289.76 248.35"
/>
<path stroke="#80aac0" vector-effect="non-scaling-stroke" d="
  M 127.37 191.35
  A 0.62 0.62 0.0 0 0 126.75 191.97
  L 126.75 247.95
  A 0.62 0.62 0.0 0 0 127.37 248.57
  L 154.82 248.57
  A 0.62 0.62 0.0 0 0 155.44 247.95
  L 155.44 242.71
  A 0.62 0.62 0.0 0 0 154.82 242.09
  L 134.29 242.09
  A 0.62 0.62 0.0 0 1 133.67 241.47
  L 133.67 191.97
  A 0.62 0.62 0.0 0 0 133.05 191.35
  L 127.37 191.35"
/>
<path stroke="#80aac0" vector-effect="non-scaling-stroke" d="
  M 263.48 191.85
  A 0.53 0.53 0.0 0 0 262.95 191.32
  L 233.69 191.32
  A 0.53 0.53 0.0 0 0 233.16 191.85
  L 233.16 248.04
  A 0.53 0.53 0.0 0 0 233.69 248.57
  L 262.93 248.57
  A 0.53 0.53 0.0 0 0 263.46 248.04
  L 263.46 242.87
  A 0.53 0.53 0.0 0 0 262.93 242.34
  L 240.59 242.34
  A 0.53 0.53 0.0 0 1 240.06 241.81
  L 240.06 223.12
  A 0.53 0.53 0.0 0 1 240.59 222.59
  L 262.92 222.59
  A 0.53 0.53 0.0 0 0 263.45 222.06
  L 263.45 217.39
  A 0.53 0.53 0.0 0 0 262.92 216.86
  L 240.60 216.86
  A 0.53 0.53 0.0 0 1 240.07 216.33
  L 240.07 198.04
  A 0.53 0.53 0.0 0 1 240.60 197.51
  L 262.95 197.51
  A 0.53 0.53 0.0 0 0 263.48 196.98
  L 263.48 191.85"
/>
<path stroke="#428b57" vector-effect="non-scaling-stroke" d="
  M 330.57 248.57
  Q 331.62 248.57 333.36 248.57
  A 0.72 0.72 0.0 0 0 334.08 247.85
  L 333.97 198.40
  A 0.65 0.65 0.0 0 1 334.61 197.75
  L 349.34 197.72
  A 0.97 0.97 0.0 0 0 350.31 196.74
  L 350.30 192.14
  A 0.85 0.85 0.0 0 0 349.45 191.29
  Q 340.12 191.21 330.45 191.20
  Q 320.78 191.25 311.45 191.37
  A 0.85 0.85 0.0 0 0 310.61 192.23
  L 310.62 196.83
  A 0.97 0.97 0.0 0 0 311.59 197.80
  L 326.31 197.77
  A 0.65 0.65 0.0 0 1 326.96 198.41
  L 327.07 247.86
  A 0.72 0.72 0.0 0 0 327.79 248.58
  Q 329.53 248.57 330.57 248.57"
/>
<path stroke="#80aac0" vector-effect="non-scaling-stroke" d="
  M 41.63 195.19
  L 41.63 249.04
  A 0.77 0.77 0.0 0 0 42.40 249.81
  L 47.33 249.81
  A 0.72 0.72 0.0 0 0 48.05 249.09
  L 48.05 225.48
  A 0.56 0.56 0.0 0 1 48.63 224.92
  C 53.62 225.10 61.58 225.43 65.66 223.26
  C 76.02 217.75 75.22 197.96 63.05 195.67
  Q 57.88 194.70 42.36 194.47
  A 0.72 0.72 0.0 0 0 41.63 195.19"
/>
<path stroke="#7a8765" vector-effect="non-scaling-stroke" d="
  M 402.22 219.95
  A 22.18 22.18 0.0 0 0 380.04 197.77
  A 22.18 22.18 0.0 0 0 357.86 219.95
  A 22.18 22.18 0.0 0 0 380.04 242.13
  A 22.18 22.18 0.0 0 0 402.22 219.95"
/>
<path stroke="#80aac0" vector-effect="non-scaling-stroke" d="
  M 342.23 258.34
  A 1.15 1.15 0.0 0 0 341.08 257.19
  L 340.96 257.19
  A 1.15 1.15 0.0 0 0 339.81 258.34
  L 339.81 280.02
  A 1.15 1.15 0.0 0 0 340.96 281.17
  L 341.08 281.17
  A 1.15 1.15 0.0 0 0 342.23 280.02
  L 342.23 258.34"
/>
<path stroke="#80aac0" vector-effect="non-scaling-stroke" d="
  M 347.1725 257.2130
  A 2.08 1.35 -86.9 0 0 345.7120 259.2170
  A 2.08 1.35 -86.9 0 0 346.9475 261.3670
  A 2.08 1.35 -86.9 0 0 348.4080 259.3630
  A 2.08 1.35 -86.9 0 0 347.1725 257.2130"
/>
<path stroke="#80aac0" vector-effect="non-scaling-stroke" d="
  M 387.5456 258.2354
  A 0.95 0.95 0.0 0 0 386.6484 257.2354
  L 386.1890 257.2105
  A 0.95 0.95 0.0 0 0 385.1891 258.1077
  L 385.0744 260.2246
  A 0.95 0.95 0.0 0 0 385.9716 261.2246
  L 386.4310 261.2495
  A 0.95 0.95 0.0 0 0 387.4309 260.3523
  L 387.5456 258.2354"
/>
<path stroke="#037db2" vector-effect="non-scaling-stroke" d="
  M 315.09 273.02
  A 0.24 0.24 0.0 0 0 315.09 272.56
  Q 313.73 272.23 310.05 270.64
  Q 308.40 269.92 304.91 268.96
  Q 286.43 263.86 278.52 262.24
  Q 250.59 256.51 219.25 258.50
  C 212.91 258.90 205.49 259.53 198.16 260.77
  C 181.48 263.59 158.94 267.76 138.67 270.60
  Q 122.95 272.81 120.00 273.05
  Q 96.59 275.03 71.99 272.54
  Q 49.47 270.26 34.43 266.50
  A 0.35 0.35 0.0 0 0 34.00 266.75
  L 33.99 266.76
  A 0.32 0.32 0.0 0 0 34.19 267.15
  Q 54.82 274.69 76.97 277.83
  Q 90.91 279.80 98.26 280.15
  Q 113.41 280.87 132.48 279.49
  Q 144.28 278.64 162.70 275.39
  Q 178.60 272.59 192.73 269.92
  Q 218.15 265.11 241.79 265.90
  C 246.77 266.06 253.96 266.00 258.62 266.37
  Q 269.07 267.19 294.62 269.91
  Q 303.50 270.86 313.81 272.93
  Q 314.69 273.11 315.09 273.02"
/>
<path stroke="#80aac0" vector-effect="non-scaling-stroke" d="
  M 375.16 266.51
  Q 375.27 270.01 375.18 276.75
  C 375.13 281.47 378.62 281.69 382.16 281.03
  A 0.60 0.59 -5.3 0 0 382.65 280.45
  L 382.65 280.08
  A 0.82 0.82 0.0 0 0 381.83 279.26
  L 379.33 279.26
  A 1.70 1.70 0.0 0 1 377.63 277.56
  L 377.63 266.71
  A 0.82 0.82 0.0 0 1 378.45 265.89
  L 381.55 265.89
  A 1.02 1.01 7.4 0 0 382.53 265.14
  L 382.60 264.90
  A 0.70 0.70 0.0 0 0 381.92 264.07
  L 378.34 264.00
  A 0.67 0.67 0.0 0 1 377.68 263.35
  L 377.57 259.73
  A 1.32 1.31 3.1 0 0 376.43 258.47
  L 376.41 258.47
  A 1.12 1.12 0.0 0 0 375.23 259.56
  L 375.15 263.52
  A 0.68 0.68 0.0 0 1 374.22 264.14
  Q 373.16 263.72 372.17 264.19
  Q 370.90 264.79 372.20 265.82
  Q 372.72 266.24 374.08 265.77
  A 0.81 0.81 0.0 0 1 375.16 266.51"
/>
<path stroke="#80aac0" vector-effect="non-scaling-stroke" d="
  M 321.97 273.07
  L 335.54 273.07
  A 1.26 1.26 0.0 0 0 336.80 271.86
  Q 336.95 268.51 334.40 265.86
  C 332.12 263.49 328.64 263.57 325.47 263.81
  C 317.73 264.40 316.17 275.08 321.21 279.41
  C 325.63 283.21 333.06 282.04 336.29 276.84
  A 0.72 0.71 23.8 0 0 335.87 275.78
  L 335.63 275.71
  A 1.53 1.52 -67.9 0 0 333.89 276.45
  Q 331.98 279.92 326.04 279.49
  A 6.19 6.17 -12.1 0 1 321.07 276.29
  L 320.62 275.63
  A 1.64 1.64 0.0 0 1 321.97 273.07"
/>
<path stroke="#80aac0" vector-effect="non-scaling-stroke" d="
  M 348.3235 264.7321
  A 0.84 0.84 0.0 0 0 347.4850 263.8906
  L 346.8050 263.8894
  A 0.84 0.84 0.0 0 0 345.9635 264.7280
  L 345.9365 280.2479
  A 0.84 0.84 0.0 0 0 346.7750 281.0894
  L 347.4550 281.0906
  A 0.84 0.84 0.0 0 0 348.2965 280.2520
  L 348.3235 264.7321"
/>
<path stroke="#80aac0" vector-effect="non-scaling-stroke" d="
  M 354.15 265.31
  Q 354.04 264.57 353.62 264.15
  A 0.98 0.98 0.0 0 0 351.94 264.84
  L 351.88 286.48
  A 1.25 1.24 0.7 0 0 353.11 287.73
  L 353.37 287.73
  A 1.00 0.99 -0.3 0 0 354.36 286.74
  L 354.36 279.13
  A 0.35 0.35 0.0 0 1 354.95 278.88
  Q 358.41 282.22 363.25 281.40
  C 370.54 280.17 372.08 272.63 368.81 266.95
  Q 367.43 264.54 364.21 263.91
  Q 358.89 262.86 354.94 265.65
  A 0.51 0.51 0.0 0 1 354.15 265.31"
/>
<path stroke="#80aac0" vector-effect="non-scaling-stroke" d="
  M 387.4231 264.7859
  A 0.93 0.93 0.0 0 0 386.4898 263.8592
  L 385.9898 263.8609
  A 0.93 0.93 0.0 0 0 385.0631 264.7942
  L 385.1169 280.2141
  A 0.93 0.93 0.0 0 0 386.0502 281.1408
  L 386.5502 281.1391
  A 0.93 0.93 0.0 0 0 387.4769 280.2058
  L 387.4231 264.7859"
/>
<path stroke="#80aac0" vector-effect="non-scaling-stroke" d="
  M 390.21 272.92
  C 390.34 276.28 391.42 279.76 394.74 280.79
  Q 399.80 282.34 404.47 280.47
  A 3.49 3.17 -72.5 0 0 405.31 279.98
  Q 407.53 278.18 408.15 275.91
  A 0.89 0.83 -76.6 0 0 407.52 274.81
  C 407.03 274.72 406.41 275.04 406.13 275.45
  C 404.02 278.63 403.50 279.15 399.79 279.43
  C 395.28 279.78 392.72 277.48 392.54 272.83
  C 392.36 268.17 394.73 265.69 399.25 265.68
  C 402.98 265.67 403.53 266.15 405.88 269.16
  C 406.20 269.54 406.84 269.82 407.32 269.69
  A 0.89 0.83 72.2 0 0 407.86 268.54
  Q 407.07 266.33 404.72 264.70
  A 3.49 3.17 68.1 0 0 403.84 264.28
  Q 399.04 262.78 394.12 264.72
  C 390.88 266.00 390.08 269.56 390.21 272.92"
/>
<path stroke="#80aac0" vector-effect="non-scaling-stroke" d="
  M 130.56 164.89
  A 0.45 0.45 0.0 0 0 130.98 165.48
  L 136.86 165.48
  A 0.45 0.45 0.0 0 0 137.28 164.89
  L 134.35 156.11
  A 0.45 0.45 0.0 0 0 133.49 156.11
  L 130.56 164.89"
/>
<path stroke="#80aac0" vector-effect="non-scaling-stroke" d="
  M 66.43 164.87
  A 0.51 0.51 0.0 0 0 66.91 165.56
  L 73.05 165.56
  A 0.51 0.51 0.0 0 0 73.53 164.87
  L 70.46 156.36
  A 0.51 0.51 0.0 0 0 69.50 156.36
  L 66.43 164.87"
/>
<path stroke="#80aac0" vector-effect="non-scaling-stroke" d="
  M 217.96 164.99
  A 0.40 0.40 0.0 0 0 218.34 165.51
  L 224.42 165.51
  A 0.40 0.40 0.0 0 0 224.80 164.99
  L 221.76 155.98
  A 0.40 0.40 0.0 0 0 221.00 155.98
  L 217.96 164.99"
/>
<path stroke="#80aac0" vector-effect="non-scaling-stroke" d="
  M 378.27 164.69
  A 0.63 0.63 0.0 0 0 378.88 165.52
  L 384.51 165.48
  A 0.63 0.63 0.0 0 0 385.10 164.64
  L 382.23 156.41
  A 0.63 0.63 0.0 0 0 381.04 156.42
  L 378.27 164.69"
/>
<path stroke="#80aac0" vector-effect="non-scaling-stroke" d="
  M 87.67 155.62
  L 87.65 161.06
  A 0.84 0.84 0.0 0 0 88.48 161.90
  L 94.73 161.93
  A 2.60 2.27 -89.7 0 0 97.01 159.34
  L 97.02 157.42
  A 2.60 2.27 -89.7 0 0 94.77 154.81
  L 88.52 154.78
  A 0.84 0.84 0.0 0 0 87.67 155.62"
/>
<path stroke="#80aac0" vector-effect="non-scaling-stroke" d="
  M 251.93 155.35
  L 251.87 168.51
  A 0.62 0.62 0.0 0 0 252.48 169.14
  L 258.22 169.17
  A 4.15 4.02 -89.7 0 0 262.26 165.04
  L 262.30 158.94
  A 4.15 4.02 -89.7 0 0 258.30 154.77
  L 252.56 154.74
  A 0.62 0.62 0.0 0 0 251.93 155.35"
/>
<path stroke="#80aac0" vector-effect="non-scaling-stroke" d="
  M 342.64 155.43
  L 342.66 168.53
  A 0.61 0.61 0.0 0 0 343.27 169.14
  L 349.13 169.13
  A 4.08 3.93 89.9 0 0 353.06 165.04
  L 353.04 158.88
  A 4.08 3.93 89.9 0 0 349.11 154.81
  L 343.25 154.82
  A 0.61 0.61 0.0 0 0 342.64 155.43"
/>
<path stroke="#80aac0" vector-effect="non-scaling-stroke" d="
  M 84.40 224.41
  A 0.46 0.46 0.0 0 0 84.82 225.06
  L 101.70 225.03
  A 0.46 0.46 0.0 0 0 102.12 224.38
  L 93.65 205.06
  A 0.46 0.46 0.0 0 0 92.81 205.06
  L 84.40 224.41"
/>
<path stroke="#80aac0" vector-effect="non-scaling-stroke" d="
  M 48.07 201.13
  L 48.01 218.59
  A 0.33 0.33 0.0 0 0 48.34 218.92
  L 56.97 218.95
  A 8.72 7.60 0.2 0 0 65.71 211.38
  L 65.73 208.46
  A 8.72 7.60 0.2 0 0 57.03 200.83
  L 48.40 200.80
  A 0.33 0.33 0.0 0 0 48.07 201.13"
/>
<path stroke="#80aac0" vector-effect="non-scaling-stroke" d="
  M 320.73 271.12
  L 334.43 271.26
  A 0.11 0.11 0.0 0 0 334.54 271.15
  L 334.54 271.13
  A 5.53 5.13 0.6 0 0 329.07 265.95
  L 326.21 265.92
  A 5.53 5.13 0.6 0 0 320.62 270.99
  L 320.62 271.01
  A 0.11 0.11 0.0 0 0 320.73 271.12"
/>
<path stroke="#80aac0" vector-effect="non-scaling-stroke" d="
  M 354.8164 269.0235
  A 7.29 6.97 -150.8 0 0 357.7796 278.6643
  A 7.29 6.97 -150.8 0 0 367.5436 276.1365
  A 7.29 6.97 -150.8 0 0 364.5804 266.4957
  A 7.29 6.97 -150.8 0 0 354.8164 269.0235"
/>
</g>
<path fill="#015480" d="
  M 447.00 0.00
  L 447.00 447.00
  L 0.00 447.00
  L 0.00 0.00
  L 447.00 0.00
  Z
  M 133.83 167.19
  Q 137.12 167.18 137.30 167.19
  A 1.04 1.03 -13.7 0 1 138.34 167.81
  L 139.54 170.66
  A 0.80 0.79 78.1 0 0 140.27 171.14
  L 140.57 171.14
  A 0.71 0.71 0.0 0 0 141.24 170.20
  Q 138.33 161.78 135.66 154.36
  Q 135.04 152.63 133.77 152.64
  Q 132.54 152.64 131.92 154.37
  Q 129.30 161.81 126.45 170.25
  A 0.71 0.71 0.0 0 0 127.12 171.18
  L 127.42 171.18
  A 0.80 0.79 -78.5 0 0 128.15 170.70
  L 129.33 167.84
  A 1.04 1.03 13.4 0 1 130.36 167.21
  Q 130.54 167.20 133.83 167.19
  Z
  M 70.01 167.22
  Q 73.26 167.22 73.44 167.23
  A 1.03 1.02 -13.6 0 1 74.47 167.85
  L 75.65 170.67
  A 0.79 0.79 0.0 0 0 76.37 171.15
  L 76.66 171.15
  A 0.70 0.70 0.0 0 0 77.33 170.22
  Q 74.48 161.88 71.86 154.53
  Q 71.25 152.82 69.99 152.82
  Q 68.77 152.82 68.16 154.53
  Q 65.54 161.88 62.69 170.22
  A 0.70 0.70 0.0 0 0 63.36 171.15
  L 63.66 171.15
  A 0.79 0.79 0.0 0 0 64.38 170.67
  L 65.55 167.85
  A 1.03 1.02 13.6 0 1 66.58 167.23
  Q 66.76 167.22 70.01 167.22
  Z
  M 171.22 161.88
  Q 171.21 169.62 171.21 170.21
  A 0.73 0.73 0.0 0 0 171.94 170.94
  L 181.40 170.94
  A 0.81 0.81 0.0 0 0 182.21 170.13
  L 182.21 169.78
  A 0.74 0.74 0.0 0 0 181.47 169.04
  L 173.93 169.04
  A 0.80 0.79 -0.0 0 1 173.13 168.25
  L 173.13 163.65
  A 0.88 0.88 0.0 0 1 174.06 162.77
  Q 182.23 163.27 182.02 161.91
  Q 182.23 160.52 174.07 161.00
  A 0.88 0.88 0.0 0 1 173.13 160.12
  L 173.14 155.52
  A 0.80 0.79 0.1 0 1 173.94 154.73
  L 181.48 154.75
  A 0.74 0.74 0.0 0 0 182.23 154.01
  L 182.23 153.66
  A 0.81 0.81 0.0 0 0 181.42 152.85
  L 171.96 152.83
  A 0.73 0.73 0.0 0 0 171.23 153.56
  Q 171.23 154.14 171.22 161.88
  Z
  M 197.45 162.45
  Q 201.62 169.59 201.97 170.06
  Q 203.03 171.51 204.64 171.08
  A 1.22 1.22 0.0 0 0 205.55 169.90
  L 205.55 153.60
  A 0.74 0.74 0.0 0 0 204.81 152.86
  L 204.47 152.86
  A 0.81 0.81 0.0 0 0 203.66 153.67
  L 203.66 168.04
  A 0.39 0.39 0.0 0 1 203.10 168.39
  Q 202.80 168.25 202.54 167.77
  Q 200.77 164.55 198.99 161.50
  Q 194.83 154.36 194.48 153.89
  Q 193.42 152.44 191.81 152.87
  A 1.22 1.22 0.0 0 0 190.90 154.05
  L 190.90 170.35
  A 0.74 0.74 0.0 0 0 191.64 171.09
  L 191.98 171.09
  A 0.81 0.81 0.0 0 0 192.79 170.28
  L 192.79 155.91
  A 0.39 0.39 0.0 0 1 193.35 155.56
  Q 193.65 155.70 193.91 156.18
  Q 195.68 159.40 197.45 162.45
  Z
  M 221.35 167.10
  Q 224.61 167.09 224.79 167.10
  A 1.03 1.02 -13.7 0 1 225.81 167.72
  L 227.00 170.54
  A 0.79 0.79 0.0 0 0 227.73 171.02
  L 228.02 171.02
  A 0.70 0.70 0.0 0 0 228.69 170.09
  Q 225.81 161.74 223.16 154.38
  Q 222.55 152.67 221.32 152.67
  Q 220.07 152.68 219.46 154.39
  Q 216.86 161.76 214.02 170.13
  A 0.70 0.70 0.0 0 0 214.69 171.05
  L 214.99 171.05
  A 0.79 0.79 0.0 0 0 215.71 170.57
  L 216.88 167.74
  A 1.03 1.02 13.4 0 1 217.91 167.12
  Q 218.09 167.11 221.35 167.10
  Z
  M 272.41 161.87
  Q 272.45 169.64 272.45 170.23
  A 0.74 0.73 89.7 0 0 273.19 170.96
  L 282.69 170.90
  A 0.81 0.81 0.0 0 0 283.50 170.09
  L 283.49 169.73
  A 0.74 0.74 0.0 0 0 282.75 169.00
  L 275.18 169.04
  A 0.80 0.79 -0.3 0 1 274.37 168.25
  L 274.34 163.63
  A 0.89 0.88 -88.6 0 1 275.28 162.74
  Q 283.47 163.20 283.26 161.83
  Q 283.46 160.44 275.27 160.97
  A 0.89 0.88 88.1 0 1 274.33 160.09
  L 274.31 155.47
  A 0.80 0.79 -0.2 0 1 275.11 154.67
  L 282.68 154.64
  A 0.74 0.74 0.0 0 0 283.42 153.90
  L 283.42 153.55
  A 0.81 0.81 0.0 0 0 282.60 152.74
  L 273.10 152.77
  A 0.74 0.73 89.7 0 0 272.37 153.51
  Q 272.38 154.10 272.41 161.87
  Z
  M 306.88 153.68
  A 0.93 0.93 0.0 0 0 305.95 152.75
  L 305.89 152.75
  A 0.93 0.93 0.0 0 0 304.96 153.68
  L 304.96 170.20
  A 0.93 0.93 0.0 0 0 305.89 171.13
  L 305.95 171.13
  A 0.93 0.93 0.0 0 0 306.88 170.20
  L 306.88 153.68
  Z
  M 323.07 162.55
  Q 327.26 169.65 327.61 170.13
  Q 328.67 171.57 330.28 171.13
  A 1.22 1.22 0.0 0 0 331.18 169.95
  L 331.11 153.69
  A 0.74 0.74 0.0 0 0 330.37 152.95
  L 330.03 152.95
  A 0.81 0.81 0.0 0 0 329.23 153.76
  L 329.29 168.10
  A 0.39 0.39 0.0 0 1 328.73 168.45
  Q 328.43 168.32 328.16 167.84
  Q 326.39 164.63 324.60 161.60
  Q 320.42 154.49 320.07 154.02
  Q 319.00 152.58 317.40 153.01
  A 1.22 1.22 0.0 0 0 316.50 154.19
  L 316.56 170.46
  A 0.74 0.74 0.0 0 0 317.30 171.19
  L 317.64 171.19
  A 0.81 0.81 0.0 0 0 318.45 170.38
  L 318.39 156.04
  A 0.39 0.39 0.0 0 1 318.95 155.69
  Q 319.25 155.83 319.51 156.31
  Q 321.29 159.51 323.07 162.55
  Z
  M 365.7855 153.7084
  A 0.89 0.89 0.0 0 0 364.8940 152.8200
  L 364.8540 152.8200
  A 0.89 0.89 0.0 0 0 363.9655 153.7116
  L 363.9945 170.3116
  A 0.89 0.89 0.0 0 0 364.8860 171.2000
  L 364.9260 171.2000
  A 0.89 0.89 0.0 0 0 365.8145 170.3084
  L 365.7855 153.7084
  Z
  M 381.67 167.20
  Q 384.92 167.20 385.10 167.21
  A 1.03 1.01 -13.5 0 1 386.12 167.83
  L 387.30 170.65
  A 0.79 0.79 0.0 0 0 388.02 171.13
  L 388.31 171.13
  A 0.70 0.70 0.0 0 0 388.98 170.20
  Q 386.13 161.86 383.52 154.52
  Q 382.91 152.81 381.69 152.80
  Q 380.44 152.80 379.83 154.51
  Q 377.21 161.86 374.35 170.19
  A 0.70 0.70 0.0 0 0 375.01 171.12
  L 375.31 171.12
  A 0.79 0.79 0.0 0 0 376.03 170.64
  L 377.21 167.82
  A 1.03 1.01 13.6 0 1 378.23 167.20
  Q 378.41 167.20 381.67 167.20
  Z
  M 41.64 162.29
  C 41.76 166.25 41.17 171.25 46.72 171.12
  Q 51.13 171.02 53.09 170.77
  Q 55.45 170.48 55.41 165.83
  A 0.96 0.96 0.0 0 0 54.44 164.88
  L 54.40 164.88
  A 0.98 0.97 -89.4 0 0 53.44 165.83
  Q 53.35 168.25 52.74 168.89
  A 0.93 0.91 20.8 0 1 52.10 169.17
  L 46.15 169.41
  A 2.05 2.05 0.0 0 1 44.03 167.62
  Q 43.73 165.25 43.63 162.22
  Q 43.54 159.20 43.70 156.82
  A 2.05 2.05 0.0 0 1 45.70 154.90
  L 51.66 154.77
  A 0.93 0.91 -24.3 0 1 52.31 155.01
  Q 52.96 155.61 53.20 158.02
  A 0.98 0.97 85.8 0 0 54.22 158.91
  L 54.26 158.91
  A 0.96 0.96 0.0 0 0 55.17 157.90
  Q 54.92 153.26 52.55 153.11
  Q 50.57 152.98 46.17 153.15
  C 40.62 153.37 41.52 158.32 41.64 162.29
  Z
  M 86.27 152.99
  A 0.48 0.47 0.0 0 0 85.79 153.46
  L 85.79 170.26
  A 0.79 0.79 0.0 0 0 86.58 171.05
  L 86.90 171.05
  A 0.72 0.72 0.0 0 0 87.62 170.33
  L 87.62 164.99
  A 1.14 1.14 0.0 0 1 88.76 163.85
  L 94.68 163.85
  A 2.19 2.19 0.0 0 1 96.87 166.04
  L 96.87 170.45
  A 0.78 0.78 0.0 0 0 98.41 170.60
  Q 99.17 166.57 97.78 163.36
  A 1.05 1.04 -42.2 0 1 97.83 162.44
  Q 100.18 158.18 97.85 154.09
  A 2.19 2.19 0.0 0 0 95.95 152.99
  L 86.27 152.99
  Z
  M 113.03 171.21
  Q 114.07 171.21 114.08 168.75
  Q 114.08 155.98 114.09 155.62
  A 0.64 0.63 -2.1 0 1 114.72 154.95
  L 118.78 154.90
  A 1.05 1.05 0.0 0 0 119.79 154.09
  L 119.79 154.07
  A 0.75 0.75 0.0 0 0 119.14 153.16
  Q 115.98 152.85 113.09 152.94
  Q 110.20 152.83 107.05 153.12
  A 0.75 0.75 0.0 0 0 106.39 154.03
  L 106.39 154.05
  A 1.05 1.05 0.0 0 0 107.39 154.86
  L 111.45 154.94
  A 0.64 0.63 2.5 0 1 112.08 155.61
  Q 112.08 155.97 112.01 168.74
  Q 111.99 171.20 113.03 171.21
  Z
  M 249.93 153.74
  L 249.91 170.22
  A 0.80 0.80 0.0 0 0 250.70 171.02
  L 258.59 171.03
  A 5.80 5.57 -89.9 0 0 264.17 165.24
  L 264.19 158.76
  A 5.80 5.57 -89.9 0 0 258.63 152.95
  L 250.74 152.94
  A 0.80 0.80 0.0 0 0 249.93 153.74
  Z
  M 340.91 153.64
  L 340.79 170.24
  A 0.72 0.72 0.0 0 0 341.51 170.97
  L 349.74 171.02
  A 5.60 5.05 -89.6 0 0 354.83 165.46
  L 354.87 158.62
  A 5.60 5.05 -89.6 0 0 349.86 152.98
  L 341.63 152.93
  A 0.72 0.72 0.0 0 0 340.91 153.64
  Z
  M 396.78 165.77
  Q 396.55 168.95 397.73 169.98
  C 399.39 171.42 402.94 171.26 405.04 171.13
  C 409.58 170.83 409.37 168.10 409.41 164.64
  C 409.45 160.41 403.66 161.09 400.65 160.72
  A 2.35 2.35 0.0 0 1 398.64 158.86
  Q 398.30 157.20 398.96 155.49
  A 1.06 1.06 0.0 0 1 399.95 154.81
  L 405.80 154.81
  A 1.26 1.26 0.0 0 1 407.04 155.83
  L 407.42 157.76
  A 0.73 0.73 0.0 0 0 408.84 157.83
  Q 409.51 155.47 407.97 153.61
  A 1.18 1.16 -19.3 0 0 407.06 153.18
  L 399.26 153.18
  A 1.99 1.97 -78.1 0 0 397.45 154.37
  C 396.15 157.31 395.94 162.32 400.36 162.64
  Q 404.89 162.98 405.61 162.96
  A 1.95 1.95 0.0 0 1 407.63 164.95
  L 407.60 167.10
  A 2.20 2.20 0.0 0 1 405.40 169.27
  L 399.93 169.27
  A 1.17 1.17 0.0 0 1 398.78 168.32
  L 398.26 165.68
  A 0.75 0.75 0.0 0 0 396.78 165.77
  Z
  M 161.34 164.45
  Q 161.37 166.73 160.80 168.05
  A 1.87 1.86 -83.8 0 1 159.45 169.14
  Q 158.03 169.41 154.00 169.30
  Q 150.85 169.21 150.75 166.00
  C 150.65 162.53 150.45 158.91 150.94 156.70
  Q 151.39 154.69 154.23 154.80
  Q 159.51 155.01 159.77 155.04
  A 1.22 1.20 79.7 0 1 160.65 155.66
  Q 161.06 156.42 161.06 157.58
  A 1.08 1.07 -85.1 0 0 161.94 158.63
  L 161.98 158.64
  A 0.88 0.88 0.0 0 0 163.01 157.90
  Q 163.29 155.81 162.11 153.76
  A 1.15 1.13 75.0 0 0 161.12 153.18
  L 152.09 153.18
  A 1.18 1.14 -58.2 0 0 151.54 153.32
  Q 149.17 154.59 148.97 157.53
  Q 148.74 160.77 148.92 165.97
  Q 149.09 170.85 153.54 171.14
  C 160.41 171.58 164.07 170.92 163.11 162.80
  A 0.71 0.70 -3.2 0 0 162.41 162.18
  L 156.00 162.18
  A 0.52 0.52 0.0 0 0 155.48 162.70
  L 155.48 163.11
  A 0.76 0.76 0.0 0 0 156.24 163.87
  L 160.75 163.87
  A 0.59 0.59 0.0 0 1 161.34 164.45
  Z
  M 93.26 230.84
  Q 97.02 230.83 103.89 230.84
  A 0.81 0.81 0.0 0 1 104.64 231.33
  L 111.48 247.30
  A 1.78 1.77 -11.6 0 0 113.11 248.37
  L 118.18 248.37
  A 0.80 0.80 0.0 0 0 118.92 247.25
  Q 105.88 217.68 93.57 189.67
  Q 93.49 189.49 93.24 189.49
  Q 92.98 189.49 92.91 189.67
  Q 80.63 217.70 67.63 247.28
  A 0.80 0.80 0.0 0 0 68.37 248.40
  L 73.44 248.40
  A 1.78 1.77 11.5 0 0 75.07 247.32
  L 81.89 231.35
  A 0.81 0.81 0.0 0 1 82.64 230.86
  Q 89.51 230.84 93.26 230.84
  Z
  M 191.25 250.39
  Q 191.31 250.39 191.35 250.38
  A 0.22 0.15 -0.5 0 0 191.51 250.27
  Q 199.64 231.63 208.39 211.33
  Q 208.55 210.97 208.74 210.79
  A 0.27 0.26 62.2 0 1 209.18 210.93
  L 216.51 248.46
  A 0.18 0.17 -3.6 0 0 216.69 248.61
  L 222.73 248.61
  A 0.22 0.21 84.5 0 0 222.94 248.35
  L 211.58 190.17
  A 0.33 0.33 0.0 0 0 210.96 190.11
  Q 207.23 199.00 191.66 235.71
  Q 191.50 236.09 191.25 236.09
  Q 191.00 236.09 190.83 235.71
  Q 175.28 199.00 171.55 190.10
  A 0.33 0.33 0.0 0 0 170.93 190.16
  L 159.55 248.34
  A 0.22 0.21 -84.4 0 0 159.76 248.60
  L 165.80 248.60
  A 0.18 0.17 3.6 0 0 165.98 248.45
  L 173.32 210.92
  A 0.27 0.26 -62.2 0 1 173.76 210.78
  Q 173.95 210.96 174.11 211.32
  Q 182.86 231.63 190.98 250.27
  A 0.22 0.15 0.5 0 0 191.14 250.38
  Q 191.18 250.39 191.25 250.39
  Z
  M 289.76 248.35
  Q 290.81 248.35 292.55 248.36
  A 0.72 0.72 0.0 0 0 293.27 247.64
  L 293.27 198.18
  A 0.65 0.65 0.0 0 1 293.92 197.53
  L 308.65 197.53
  A 0.97 0.97 0.0 0 0 309.62 196.56
  L 309.62 191.96
  A 0.86 0.85 -89.8 0 0 308.77 191.10
  Q 299.44 191.00 289.77 190.97
  Q 280.10 191.00 270.77 191.10
  A 0.86 0.85 89.8 0 0 269.92 191.96
  L 269.92 196.56
  A 0.97 0.97 0.0 0 0 270.89 197.53
  L 285.62 197.53
  A 0.65 0.65 0.0 0 1 286.27 198.18
  L 286.26 247.64
  A 0.72 0.72 0.0 0 0 286.98 248.36
  Q 288.72 248.35 289.76 248.35
  Z
  M 127.37 191.35
  A 0.62 0.62 0.0 0 0 126.75 191.97
  L 126.75 247.95
  A 0.62 0.62 0.0 0 0 127.37 248.57
  L 154.82 248.57
  A 0.62 0.62 0.0 0 0 155.44 247.95
  L 155.44 242.71
  A 0.62 0.62 0.0 0 0 154.82 242.09
  L 134.29 242.09
  A 0.62 0.62 0.0 0 1 133.67 241.47
  L 133.67 191.97
  A 0.62 0.62 0.0 0 0 133.05 191.35
  L 127.37 191.35
  Z
  M 263.48 191.85
  A 0.53 0.53 0.0 0 0 262.95 191.32
  L 233.69 191.32
  A 0.53 0.53 0.0 0 0 233.16 191.85
  L 233.16 248.04
  A 0.53 0.53 0.0 0 0 233.69 248.57
  L 262.93 248.57
  A 0.53 0.53 0.0 0 0 263.46 248.04
  L 263.46 242.87
  A 0.53 0.53 0.0 0 0 262.93 242.34
  L 240.59 242.34
  A 0.53 0.53 0.0 0 1 240.06 241.81
  L 240.06 223.12
  A 0.53 0.53 0.0 0 1 240.59 222.59
  L 262.92 222.59
  A 0.53 0.53 0.0 0 0 263.45 222.06
  L 263.45 217.39
  A 0.53 0.53 0.0 0 0 262.92 216.86
  L 240.60 216.86
  A 0.53 0.53 0.0 0 1 240.07 216.33
  L 240.07 198.04
  A 0.53 0.53 0.0 0 1 240.60 197.51
  L 262.95 197.51
  A 0.53 0.53 0.0 0 0 263.48 196.98
  L 263.48 191.85
  Z
  M 330.57 248.57
  Q 331.62 248.57 333.36 248.57
  A 0.72 0.72 0.0 0 0 334.08 247.85
  L 333.97 198.40
  A 0.65 0.65 0.0 0 1 334.61 197.75
  L 349.34 197.72
  A 0.97 0.97 0.0 0 0 350.31 196.74
  L 350.30 192.14
  A 0.85 0.85 0.0 0 0 349.45 191.29
  Q 340.12 191.21 330.45 191.20
  Q 320.78 191.25 311.45 191.37
  A 0.85 0.85 0.0 0 0 310.61 192.23
  L 310.62 196.83
  A 0.97 0.97 0.0 0 0 311.59 197.80
  L 326.31 197.77
  A 0.65 0.65 0.0 0 1 326.96 198.41
  L 327.07 247.86
  A 0.72 0.72 0.0 0 0 327.79 248.58
  Q 329.53 248.57 330.57 248.57
  Z
  M 41.63 195.19
  L 41.63 249.04
  A 0.77 0.77 0.0 0 0 42.40 249.81
  L 47.33 249.81
  A 0.72 0.72 0.0 0 0 48.05 249.09
  L 48.05 225.48
  A 0.56 0.56 0.0 0 1 48.63 224.92
  C 53.62 225.10 61.58 225.43 65.66 223.26
  C 76.02 217.75 75.22 197.96 63.05 195.67
  Q 57.88 194.70 42.36 194.47
  A 0.72 0.72 0.0 0 0 41.63 195.19
  Z
  M 402.22 219.95
  A 22.18 22.18 0.0 0 0 380.04 197.77
  A 22.18 22.18 0.0 0 0 357.86 219.95
  A 22.18 22.18 0.0 0 0 380.04 242.13
  A 22.18 22.18 0.0 0 0 402.22 219.95
  Z
  M 342.23 258.34
  A 1.15 1.15 0.0 0 0 341.08 257.19
  L 340.96 257.19
  A 1.15 1.15 0.0 0 0 339.81 258.34
  L 339.81 280.02
  A 1.15 1.15 0.0 0 0 340.96 281.17
  L 341.08 281.17
  A 1.15 1.15 0.0 0 0 342.23 280.02
  L 342.23 258.34
  Z
  M 347.1725 257.2130
  A 2.08 1.35 -86.9 0 0 345.7120 259.2170
  A 2.08 1.35 -86.9 0 0 346.9475 261.3670
  A 2.08 1.35 -86.9 0 0 348.4080 259.3630
  A 2.08 1.35 -86.9 0 0 347.1725 257.2130
  Z
  M 387.5456 258.2354
  A 0.95 0.95 0.0 0 0 386.6484 257.2354
  L 386.1890 257.2105
  A 0.95 0.95 0.0 0 0 385.1891 258.1077
  L 385.0744 260.2246
  A 0.95 0.95 0.0 0 0 385.9716 261.2246
  L 386.4310 261.2495
  A 0.95 0.95 0.0 0 0 387.4309 260.3523
  L 387.5456 258.2354
  Z
  M 315.09 273.02
  A 0.24 0.24 0.0 0 0 315.09 272.56
  Q 313.73 272.23 310.05 270.64
  Q 308.40 269.92 304.91 268.96
  Q 286.43 263.86 278.52 262.24
  Q 250.59 256.51 219.25 258.50
  C 212.91 258.90 205.49 259.53 198.16 260.77
  C 181.48 263.59 158.94 267.76 138.67 270.60
  Q 122.95 272.81 120.00 273.05
  Q 96.59 275.03 71.99 272.54
  Q 49.47 270.26 34.43 266.50
  A 0.35 0.35 0.0 0 0 34.00 266.75
  L 33.99 266.76
  A 0.32 0.32 0.0 0 0 34.19 267.15
  Q 54.82 274.69 76.97 277.83
  Q 90.91 279.80 98.26 280.15
  Q 113.41 280.87 132.48 279.49
  Q 144.28 278.64 162.70 275.39
  Q 178.60 272.59 192.73 269.92
  Q 218.15 265.11 241.79 265.90
  C 246.77 266.06 253.96 266.00 258.62 266.37
  Q 269.07 267.19 294.62 269.91
  Q 303.50 270.86 313.81 272.93
  Q 314.69 273.11 315.09 273.02
  Z
  M 375.16 266.51
  Q 375.27 270.01 375.18 276.75
  C 375.13 281.47 378.62 281.69 382.16 281.03
  A 0.60 0.59 -5.3 0 0 382.65 280.45
  L 382.65 280.08
  A 0.82 0.82 0.0 0 0 381.83 279.26
  L 379.33 279.26
  A 1.70 1.70 0.0 0 1 377.63 277.56
  L 377.63 266.71
  A 0.82 0.82 0.0 0 1 378.45 265.89
  L 381.55 265.89
  A 1.02 1.01 7.4 0 0 382.53 265.14
  L 382.60 264.90
  A 0.70 0.70 0.0 0 0 381.92 264.07
  L 378.34 264.00
  A 0.67 0.67 0.0 0 1 377.68 263.35
  L 377.57 259.73
  A 1.32 1.31 3.1 0 0 376.43 258.47
  L 376.41 258.47
  A 1.12 1.12 0.0 0 0 375.23 259.56
  L 375.15 263.52
  A 0.68 0.68 0.0 0 1 374.22 264.14
  Q 373.16 263.72 372.17 264.19
  Q 370.90 264.79 372.20 265.82
  Q 372.72 266.24 374.08 265.77
  A 0.81 0.81 0.0 0 1 375.16 266.51
  Z
  M 321.97 273.07
  L 335.54 273.07
  A 1.26 1.26 0.0 0 0 336.80 271.86
  Q 336.95 268.51 334.40 265.86
  C 332.12 263.49 328.64 263.57 325.47 263.81
  C 317.73 264.40 316.17 275.08 321.21 279.41
  C 325.63 283.21 333.06 282.04 336.29 276.84
  A 0.72 0.71 23.8 0 0 335.87 275.78
  L 335.63 275.71
  A 1.53 1.52 -67.9 0 0 333.89 276.45
  Q 331.98 279.92 326.04 279.49
  A 6.19 6.17 -12.1 0 1 321.07 276.29
  L 320.62 275.63
  A 1.64 1.64 0.0 0 1 321.97 273.07
  Z
  M 348.3235 264.7321
  A 0.84 0.84 0.0 0 0 347.4850 263.8906
  L 346.8050 263.8894
  A 0.84 0.84 0.0 0 0 345.9635 264.7280
  L 345.9365 280.2479
  A 0.84 0.84 0.0 0 0 346.7750 281.0894
  L 347.4550 281.0906
  A 0.84 0.84 0.0 0 0 348.2965 280.2520
  L 348.3235 264.7321
  Z
  M 354.15 265.31
  Q 354.04 264.57 353.62 264.15
  A 0.98 0.98 0.0 0 0 351.94 264.84
  L 351.88 286.48
  A 1.25 1.24 0.7 0 0 353.11 287.73
  L 353.37 287.73
  A 1.00 0.99 -0.3 0 0 354.36 286.74
  L 354.36 279.13
  A 0.35 0.35 0.0 0 1 354.95 278.88
  Q 358.41 282.22 363.25 281.40
  C 370.54 280.17 372.08 272.63 368.81 266.95
  Q 367.43 264.54 364.21 263.91
  Q 358.89 262.86 354.94 265.65
  A 0.51 0.51 0.0 0 1 354.15 265.31
  Z
  M 387.4231 264.7859
  A 0.93 0.93 0.0 0 0 386.4898 263.8592
  L 385.9898 263.8609
  A 0.93 0.93 0.0 0 0 385.0631 264.7942
  L 385.1169 280.2141
  A 0.93 0.93 0.0 0 0 386.0502 281.1408
  L 386.5502 281.1391
  A 0.93 0.93 0.0 0 0 387.4769 280.2058
  L 387.4231 264.7859
  Z
  M 390.21 272.92
  C 390.34 276.28 391.42 279.76 394.74 280.79
  Q 399.80 282.34 404.47 280.47
  A 3.49 3.17 -72.5 0 0 405.31 279.98
  Q 407.53 278.18 408.15 275.91
  A 0.89 0.83 -76.6 0 0 407.52 274.81
  C 407.03 274.72 406.41 275.04 406.13 275.45
  C 404.02 278.63 403.50 279.15 399.79 279.43
  C 395.28 279.78 392.72 277.48 392.54 272.83
  C 392.36 268.17 394.73 265.69 399.25 265.68
  C 402.98 265.67 403.53 266.15 405.88 269.16
  C 406.20 269.54 406.84 269.82 407.32 269.69
  A 0.89 0.83 72.2 0 0 407.86 268.54
  Q 407.07 266.33 404.72 264.70
  A 3.49 3.17 68.1 0 0 403.84 264.28
  Q 399.04 262.78 394.12 264.72
  C 390.88 266.00 390.08 269.56 390.21 272.92
  Z"
/>
<path fill="#ffffff" d="
  M 133.83 167.19
  Q 130.54 167.20 130.36 167.21
  A 1.04 1.03 13.4 0 0 129.33 167.84
  L 128.15 170.70
  A 0.80 0.79 -78.5 0 1 127.42 171.18
  L 127.12 171.18
  A 0.71 0.71 0.0 0 1 126.45 170.25
  Q 129.30 161.81 131.92 154.37
  Q 132.54 152.64 133.77 152.64
  Q 135.04 152.63 135.66 154.36
  Q 138.33 161.78 141.24 170.20
  A 0.71 0.71 0.0 0 1 140.57 171.14
  L 140.27 171.14
  A 0.80 0.79 78.1 0 1 139.54 170.66
  L 138.34 167.81
  A 1.04 1.03 -13.7 0 0 137.30 167.19
  Q 137.12 167.18 133.83 167.19
  Z
  M 130.56 164.89
  A 0.45 0.45 0.0 0 0 130.98 165.48
  L 136.86 165.48
  A 0.45 0.45 0.0 0 0 137.28 164.89
  L 134.35 156.11
  A 0.45 0.45 0.0 0 0 133.49 156.11
  L 130.56 164.89
  Z"
/>
<path fill="#ffffff" d="
  M 70.01 167.22
  Q 66.76 167.22 66.58 167.23
  A 1.03 1.02 13.6 0 0 65.55 167.85
  L 64.38 170.67
  A 0.79 0.79 0.0 0 1 63.66 171.15
  L 63.36 171.15
  A 0.70 0.70 0.0 0 1 62.69 170.22
  Q 65.54 161.88 68.16 154.53
  Q 68.77 152.82 69.99 152.82
  Q 71.25 152.82 71.86 154.53
  Q 74.48 161.88 77.33 170.22
  A 0.70 0.70 0.0 0 1 76.66 171.15
  L 76.37 171.15
  A 0.79 0.79 0.0 0 1 75.65 170.67
  L 74.47 167.85
  A 1.03 1.02 -13.6 0 0 73.44 167.23
  Q 73.26 167.22 70.01 167.22
  Z
  M 66.43 164.87
  A 0.51 0.51 0.0 0 0 66.91 165.56
  L 73.05 165.56
  A 0.51 0.51 0.0 0 0 73.53 164.87
  L 70.46 156.36
  A 0.51 0.51 0.0 0 0 69.50 156.36
  L 66.43 164.87
  Z"
/>
<path fill="#ffffff" d="
  M 182.02 161.91
  Q 182.23 163.27 174.06 162.77
  A 0.88 0.88 0.0 0 0 173.13 163.65
  L 173.13 168.25
  A 0.80 0.79 -0.0 0 0 173.93 169.04
  L 181.47 169.04
  A 0.74 0.74 0.0 0 1 182.21 169.78
  L 182.21 170.13
  A 0.81 0.81 0.0 0 1 181.40 170.94
  L 171.94 170.94
  A 0.73 0.73 0.0 0 1 171.21 170.21
  Q 171.21 169.62 171.22 161.88
  Q 171.23 154.14 171.23 153.56
  A 0.73 0.73 0.0 0 1 171.96 152.83
  L 181.42 152.85
  A 0.81 0.81 0.0 0 1 182.23 153.66
  L 182.23 154.01
  A 0.74 0.74 0.0 0 1 181.48 154.75
  L 173.94 154.73
  A 0.80 0.79 0.1 0 0 173.14 155.52
  L 173.13 160.12
  A 0.88 0.88 0.0 0 0 174.07 161.00
  Q 182.23 160.52 182.02 161.91
  Z"
/>
<path fill="#ffffff" d="
  M 198.99 161.50
  Q 200.77 164.55 202.54 167.77
  Q 202.80 168.25 203.10 168.39
  A 0.39 0.39 0.0 0 0 203.66 168.04
  L 203.66 153.67
  A 0.81 0.81 0.0 0 1 204.47 152.86
  L 204.81 152.86
  A 0.74 0.74 0.0 0 1 205.55 153.60
  L 205.55 169.90
  A 1.22 1.22 0.0 0 1 204.64 171.08
  Q 203.03 171.51 201.97 170.06
  Q 201.62 169.59 197.45 162.45
  Q 195.68 159.40 193.91 156.18
  Q 193.65 155.70 193.35 155.56
  A 0.39 0.39 0.0 0 0 192.79 155.91
  L 192.79 170.28
  A 0.81 0.81 0.0 0 1 191.98 171.09
  L 191.64 171.09
  A 0.74 0.74 0.0 0 1 190.90 170.35
  L 190.90 154.05
  A 1.22 1.22 0.0 0 1 191.81 152.87
  Q 193.42 152.44 194.48 153.89
  Q 194.83 154.36 198.99 161.50
  Z"
/>
<path fill="#ffffff" d="
  M 221.35 167.10
  Q 218.09 167.11 217.91 167.12
  A 1.03 1.02 13.4 0 0 216.88 167.74
  L 215.71 170.57
  A 0.79 0.79 0.0 0 1 214.99 171.05
  L 214.69 171.05
  A 0.70 0.70 0.0 0 1 214.02 170.13
  Q 216.86 161.76 219.46 154.39
  Q 220.07 152.68 221.32 152.67
  Q 222.55 152.67 223.16 154.38
  Q 225.81 161.74 228.69 170.09
  A 0.70 0.70 0.0 0 1 228.02 171.02
  L 227.73 171.02
  A 0.79 0.79 0.0 0 1 227.00 170.54
  L 225.81 167.72
  A 1.03 1.02 -13.7 0 0 224.79 167.10
  Q 224.61 167.09 221.35 167.10
  Z
  M 217.96 164.99
  A 0.40 0.40 0.0 0 0 218.34 165.51
  L 224.42 165.51
  A 0.40 0.40 0.0 0 0 224.80 164.99
  L 221.76 155.98
  A 0.40 0.40 0.0 0 0 221.00 155.98
  L 217.96 164.99
  Z"
/>
<path fill="#ffffff" d="
  M 272.41 161.87
  Q 272.38 154.10 272.37 153.51
  A 0.74 0.73 89.7 0 1 273.10 152.77
  L 282.60 152.74
  A 0.81 0.81 0.0 0 1 283.42 153.55
  L 283.42 153.90
  A 0.74 0.74 0.0 0 1 282.68 154.64
  L 275.11 154.67
  A 0.80 0.79 -0.2 0 0 274.31 155.47
  L 274.33 160.09
  A 0.89 0.88 88.1 0 0 275.27 160.97
  Q 283.46 160.44 283.26 161.83
  Q 283.47 163.20 275.28 162.74
  A 0.89 0.88 -88.6 0 0 274.34 163.63
  L 274.37 168.25
  A 0.80 0.79 -0.3 0 0 275.18 169.04
  L 282.75 169.00
  A 0.74 0.74 0.0 0 1 283.49 169.73
  L 283.50 170.09
  A 0.81 0.81 0.0 0 1 282.69 170.90
  L 273.19 170.96
  A 0.74 0.73 89.7 0 1 272.45 170.23
  Q 272.45 169.64 272.41 161.87
  Z"
/>
<rect fill="#ffffff" x="304.96" y="152.75" width="1.92" height="18.38" rx="0.93"/>
<path fill="#ffffff" d="
  M 323.07 162.55
  Q 321.29 159.51 319.51 156.31
  Q 319.25 155.83 318.95 155.69
  A 0.39 0.39 0.0 0 0 318.39 156.04
  L 318.45 170.38
  A 0.81 0.81 0.0 0 1 317.64 171.19
  L 317.30 171.19
  A 0.74 0.74 0.0 0 1 316.56 170.46
  L 316.50 154.19
  A 1.22 1.22 0.0 0 1 317.40 153.01
  Q 319.00 152.58 320.07 154.02
  Q 320.42 154.49 324.60 161.60
  Q 326.39 164.63 328.16 167.84
  Q 328.43 168.32 328.73 168.45
  A 0.39 0.39 0.0 0 0 329.29 168.10
  L 329.23 153.76
  A 0.81 0.81 0.0 0 1 330.03 152.95
  L 330.37 152.95
  A 0.74 0.74 0.0 0 1 331.11 153.69
  L 331.18 169.95
  A 1.22 1.22 0.0 0 1 330.28 171.13
  Q 328.67 171.57 327.61 170.13
  Q 327.26 169.65 323.07 162.55
  Z"
/>
<rect fill="#ffffff" x="-0.91" y="-9.19" transform="translate(364.89,162.01) rotate(-0.1)" width="1.82" height="18.38" rx="0.89"/>
<path fill="#ffffff" d="
  M 381.67 167.20
  Q 378.41 167.20 378.23 167.20
  A 1.03 1.01 13.6 0 0 377.21 167.82
  L 376.03 170.64
  A 0.79 0.79 0.0 0 1 375.31 171.12
  L 375.01 171.12
  A 0.70 0.70 0.0 0 1 374.35 170.19
  Q 377.21 161.86 379.83 154.51
  Q 380.44 152.80 381.69 152.80
  Q 382.91 152.81 383.52 154.52
  Q 386.13 161.86 388.98 170.20
  A 0.70 0.70 0.0 0 1 388.31 171.13
  L 388.02 171.13
  A 0.79 0.79 0.0 0 1 387.30 170.65
  L 386.12 167.83
  A 1.03 1.01 -13.5 0 0 385.10 167.21
  Q 384.92 167.20 381.67 167.20
  Z
  M 378.27 164.69
  A 0.63 0.63 0.0 0 0 378.88 165.52
  L 384.51 165.48
  A 0.63 0.63 0.0 0 0 385.10 164.64
  L 382.23 156.41
  A 0.63 0.63 0.0 0 0 381.04 156.42
  L 378.27 164.69
  Z"
/>
<path fill="#ffffff" d="
  M 43.63 162.22
  Q 43.73 165.25 44.03 167.62
  A 2.05 2.05 0.0 0 0 46.15 169.41
  L 52.10 169.17
  A 0.93 0.91 20.8 0 0 52.74 168.89
  Q 53.35 168.25 53.44 165.83
  A 0.98 0.97 -89.4 0 1 54.40 164.88
  L 54.44 164.88
  A 0.96 0.96 0.0 0 1 55.41 165.83
  Q 55.45 170.48 53.09 170.77
  Q 51.13 171.02 46.72 171.12
  C 41.17 171.25 41.76 166.25 41.64 162.29
  C 41.52 158.32 40.62 153.37 46.17 153.15
  Q 50.57 152.98 52.55 153.11
  Q 54.92 153.26 55.17 157.90
  A 0.96 0.96 0.0 0 1 54.26 158.91
  L 54.22 158.91
  A 0.98 0.97 85.8 0 1 53.20 158.02
  Q 52.96 155.61 52.31 155.01
  A 0.93 0.91 -24.3 0 0 51.66 154.77
  L 45.70 154.90
  A 2.05 2.05 0.0 0 0 43.70 156.82
  Q 43.54 159.20 43.63 162.22
  Z"
/>
<path fill="#ffffff" d="
  M 86.27 152.99
  L 95.95 152.99
  A 2.19 2.19 0.0 0 1 97.85 154.09
  Q 100.18 158.18 97.83 162.44
  A 1.05 1.04 -42.2 0 0 97.78 163.36
  Q 99.17 166.57 98.41 170.60
  A 0.78 0.78 0.0 0 1 96.87 170.45
  L 96.87 166.04
  A 2.19 2.19 0.0 0 0 94.68 163.85
  L 88.76 163.85
  A 1.14 1.14 0.0 0 0 87.62 164.99
  L 87.62 170.33
  A 0.72 0.72 0.0 0 1 86.90 171.05
  L 86.58 171.05
  A 0.79 0.79 0.0 0 1 85.79 170.26
  L 85.79 153.46
  A 0.48 0.47 -0.0 0 1 86.27 152.99
  Z
  M 87.67 155.62
  L 87.65 161.06
  A 0.84 0.84 0.0 0 0 88.48 161.90
  L 94.73 161.93
  A 2.60 2.27 -89.7 0 0 97.01 159.34
  L 97.02 157.42
  A 2.60 2.27 -89.7 0 0 94.77 154.81
  L 88.52 154.78
  A 0.84 0.84 0.0 0 0 87.67 155.62
  Z"
/>
<path fill="#ffffff" d="
  M 113.09 152.94
  Q 115.98 152.85 119.14 153.16
  A 0.75 0.75 0.0 0 1 119.79 154.07
  L 119.79 154.09
  A 1.05 1.05 0.0 0 1 118.78 154.90
  L 114.72 154.95
  A 0.64 0.63 -2.1 0 0 114.09 155.62
  Q 114.08 155.98 114.08 168.75
  Q 114.07 171.21 113.03 171.21
  Q 111.99 171.20 112.01 168.74
  Q 112.08 155.97 112.08 155.61
  A 0.64 0.63 2.5 0 0 111.45 154.94
  L 107.39 154.86
  A 1.05 1.05 0.0 0 1 106.39 154.05
  L 106.39 154.03
  A 0.75 0.75 0.0 0 1 107.05 153.12
  Q 110.20 152.83 113.09 152.94
  Z"
/>
<path fill="#ffffff" d="
  M 249.93 153.74
  A 0.80 0.80 0.0 0 1 250.74 152.94
  L 258.63 152.95
  A 5.80 5.57 -89.9 0 1 264.19 158.76
  L 264.17 165.24
  A 5.80 5.57 -89.9 0 1 258.59 171.03
  L 250.70 171.02
  A 0.80 0.80 0.0 0 1 249.91 170.22
  L 249.93 153.74
  Z
  M 251.93 155.35
  L 251.87 168.51
  A 0.62 0.62 0.0 0 0 252.48 169.14
  L 258.22 169.17
  A 4.15 4.02 -89.7 0 0 262.26 165.04
  L 262.30 158.94
  A 4.15 4.02 -89.7 0 0 258.30 154.77
  L 252.56 154.74
  A 0.62 0.62 0.0 0 0 251.93 155.35
  Z"
/>
<path fill="#ffffff" d="
  M 340.91 153.64
  A 0.72 0.72 0.0 0 1 341.63 152.93
  L 349.86 152.98
  A 5.60 5.05 -89.6 0 1 354.87 158.62
  L 354.83 165.46
  A 5.60 5.05 -89.6 0 1 349.74 171.02
  L 341.51 170.97
  A 0.72 0.72 0.0 0 1 340.79 170.24
  L 340.91 153.64
  Z
  M 342.64 155.43
  L 342.66 168.53
  A 0.61 0.61 0.0 0 0 343.27 169.14
  L 349.13 169.13
  A 4.08 3.93 89.9 0 0 353.06 165.04
  L 353.04 158.88
  A 4.08 3.93 89.9 0 0 349.11 154.81
  L 343.25 154.82
  A 0.61 0.61 0.0 0 0 342.64 155.43
  Z"
/>
<path fill="#ffffff" d="
  M 396.78 165.77
  A 0.75 0.75 0.0 0 1 398.26 165.68
  L 398.78 168.32
  A 1.17 1.17 0.0 0 0 399.93 169.27
  L 405.40 169.27
  A 2.20 2.20 0.0 0 0 407.60 167.10
  L 407.63 164.95
  A 1.95 1.95 0.0 0 0 405.61 162.96
  Q 404.89 162.98 400.36 162.64
  C 395.94 162.32 396.15 157.31 397.45 154.37
  A 1.99 1.97 -78.1 0 1 399.26 153.18
  L 407.06 153.18
  A 1.18 1.16 -19.3 0 1 407.97 153.61
  Q 409.51 155.47 408.84 157.83
  A 0.73 0.73 0.0 0 1 407.42 157.76
  L 407.04 155.83
  A 1.26 1.26 0.0 0 0 405.80 154.81
  L 399.95 154.81
  A 1.06 1.06 0.0 0 0 398.96 155.49
  Q 398.30 157.20 398.64 158.86
  A 2.35 2.35 0.0 0 0 400.65 160.72
  C 403.66 161.09 409.45 160.41 409.41 164.64
  C 409.37 168.10 409.58 170.83 405.04 171.13
  C 402.94 171.26 399.39 171.42 397.73 169.98
  Q 396.55 168.95 396.78 165.77
  Z"
/>
<path fill="#ffffff" d="
  M 160.75 163.87
  L 156.24 163.87
  A 0.76 0.76 0.0 0 1 155.48 163.11
  L 155.48 162.70
  A 0.52 0.52 0.0 0 1 156.00 162.18
  L 162.41 162.18
  A 0.71 0.70 -3.2 0 1 163.11 162.80
  C 164.07 170.92 160.41 171.58 153.54 171.14
  Q 149.09 170.85 148.92 165.97
  Q 148.74 160.77 148.97 157.53
  Q 149.17 154.59 151.54 153.32
  A 1.18 1.14 -58.2 0 1 152.09 153.18
  L 161.12 153.18
  A 1.15 1.13 75.0 0 1 162.11 153.76
  Q 163.29 155.81 163.01 157.90
  A 0.88 0.88 0.0 0 1 161.98 158.64
  L 161.94 158.63
  A 1.08 1.07 -85.1 0 1 161.06 157.58
  Q 161.06 156.42 160.65 155.66
  A 1.22 1.20 79.7 0 0 159.77 155.04
  Q 159.51 155.01 154.23 154.80
  Q 151.39 154.69 150.94 156.70
  C 150.45 158.91 150.65 162.53 150.75 166.00
  Q 150.85 169.21 154.00 169.30
  Q 158.03 169.41 159.45 169.14
  A 1.87 1.86 -83.8 0 0 160.80 168.05
  Q 161.37 166.73 161.34 164.45
  A 0.59 0.59 0.0 0 0 160.75 163.87
  Z"
/>
<path fill="#015480" d="
  M 87.67 155.62
  A 0.84 0.84 0.0 0 1 88.52 154.78
  L 94.77 154.81
  A 2.60 2.27 -89.7 0 1 97.02 157.42
  L 97.01 159.34
  A 2.60 2.27 -89.7 0 1 94.73 161.93
  L 88.48 161.90
  A 0.84 0.84 0.0 0 1 87.65 161.06
  L 87.67 155.62
  Z"
/>
<path fill="#015480" d="
  M 251.93 155.35
  A 0.62 0.62 0.0 0 1 252.56 154.74
  L 258.30 154.77
  A 4.15 4.02 -89.7 0 1 262.30 158.94
  L 262.26 165.04
  A 4.15 4.02 -89.7 0 1 258.22 169.17
  L 252.48 169.14
  A 0.62 0.62 0.0 0 1 251.87 168.51
  L 251.93 155.35
  Z"
/>
<path fill="#015480" d="
  M 342.64 155.43
  A 0.61 0.61 0.0 0 1 343.25 154.82
  L 349.11 154.81
  A 4.08 3.93 89.9 0 1 353.04 158.88
  L 353.06 165.04
  A 4.08 3.93 89.9 0 1 349.13 169.13
  L 343.27 169.14
  A 0.61 0.61 0.0 0 1 342.66 168.53
  L 342.64 155.43
  Z"
/>
<path fill="#015480" d="
  M 130.56 164.89
  L 133.49 156.11
  A 0.45 0.45 0.0 0 1 134.35 156.11
  L 137.28 164.89
  A 0.45 0.45 0.0 0 1 136.86 165.48
  L 130.98 165.48
  A 0.45 0.45 0.0 0 1 130.56 164.89
  Z"
/>
<path fill="#015480" d="
  M 217.96 164.99
  L 221.00 155.98
  A 0.40 0.40 0.0 0 1 221.76 155.98
  L 224.80 164.99
  A 0.40 0.40 0.0 0 1 224.42 165.51
  L 218.34 165.51
  A 0.40 0.40 0.0 0 1 217.96 164.99
  Z"
/>
<path fill="#015480" d="
  M 66.43 164.87
  L 69.50 156.36
  A 0.51 0.51 0.0 0 1 70.46 156.36
  L 73.53 164.87
  A 0.51 0.51 0.0 0 1 73.05 165.56
  L 66.91 165.56
  A 0.51 0.51 0.0 0 1 66.43 164.87
  Z"
/>
<path fill="#015480" d="
  M 378.27 164.69
  L 381.04 156.42
  A 0.63 0.63 0.0 0 1 382.23 156.41
  L 385.10 164.64
  A 0.63 0.63 0.0 0 1 384.51 165.48
  L 378.88 165.52
  A 0.63 0.63 0.0 0 1 378.27 164.69
  Z"
/>
<path fill="#ffffff" d="
  M 93.24 189.49
  Q 93.49 189.49 93.57 189.67
  Q 105.88 217.68 118.92 247.25
  A 0.80 0.80 0.0 0 1 118.18 248.37
  L 113.11 248.37
  A 1.78 1.77 -11.6 0 1 111.48 247.30
  L 104.64 231.33
  A 0.81 0.81 0.0 0 0 103.89 230.84
  Q 97.02 230.83 93.26 230.84
  Q 89.51 230.84 82.64 230.86
  A 0.81 0.81 0.0 0 0 81.89 231.35
  L 75.07 247.32
  A 1.78 1.77 11.5 0 1 73.44 248.40
  L 68.37 248.40
  A 0.80 0.80 0.0 0 1 67.63 247.28
  Q 80.63 217.70 92.91 189.67
  Q 92.98 189.49 93.24 189.49
  Z
  M 84.40 224.41
  A 0.46 0.46 0.0 0 0 84.82 225.06
  L 101.70 225.03
  A 0.46 0.46 0.0 0 0 102.12 224.38
  L 93.65 205.06
  A 0.46 0.46 0.0 0 0 92.81 205.06
  L 84.40 224.41
  Z"
/>
<path fill="#ffffff" d="
  M 191.25 236.09
  Q 191.50 236.09 191.66 235.71
  Q 207.23 199.00 210.96 190.11
  A 0.33 0.33 0.0 0 1 211.58 190.17
  L 222.94 248.35
  A 0.22 0.21 84.5 0 1 222.73 248.61
  L 216.69 248.61
  A 0.18 0.17 -3.6 0 1 216.51 248.46
  L 209.18 210.93
  A 0.27 0.26 62.2 0 0 208.74 210.79
  Q 208.55 210.97 208.39 211.33
  Q 199.64 231.63 191.51 250.27
  A 0.22 0.15 -0.5 0 1 191.35 250.38
  Q 191.31 250.39 191.25 250.39
  Q 191.18 250.39 191.14 250.38
  A 0.22 0.15 0.5 0 1 190.98 250.27
  Q 182.86 231.63 174.11 211.32
  Q 173.95 210.96 173.76 210.78
  A 0.27 0.26 -62.2 0 0 173.32 210.92
  L 165.98 248.45
  A 0.18 0.17 3.6 0 1 165.80 248.60
  L 159.76 248.60
  A 0.22 0.21 -84.4 0 1 159.55 248.34
  L 170.93 190.16
  A 0.33 0.33 0.0 0 1 171.55 190.10
  Q 175.28 199.00 190.83 235.71
  Q 191.00 236.09 191.25 236.09
  Z"
/>
<path fill="#83c22d" d="
  M 289.77 190.97
  Q 299.44 191.00 308.77 191.10
  A 0.86 0.85 -89.8 0 1 309.62 191.96
  L 309.62 196.56
  A 0.97 0.97 0.0 0 1 308.65 197.53
  L 293.92 197.53
  A 0.65 0.65 0.0 0 0 293.27 198.18
  L 293.27 247.64
  A 0.72 0.72 0.0 0 1 292.55 248.36
  Q 290.81 248.35 289.76 248.35
  Q 288.72 248.35 286.98 248.36
  A 0.72 0.72 0.0 0 1 286.26 247.64
  L 286.27 198.18
  A 0.65 0.65 0.0 0 0 285.62 197.53
  L 270.89 197.53
  A 0.97 0.97 0.0 0 1 269.92 196.56
  L 269.92 191.96
  A 0.86 0.85 89.8 0 1 270.77 191.10
  Q 280.10 191.00 289.77 190.97
  Z"
/>
<path fill="#ffffff" d="
  M 127.37 191.35
  L 133.05 191.35
  A 0.62 0.62 0.0 0 1 133.67 191.97
  L 133.67 241.47
  A 0.62 0.62 0.0 0 0 134.29 242.09
  L 154.82 242.09
  A 0.62 0.62 0.0 0 1 155.44 242.71
  L 155.44 247.95
  A 0.62 0.62 0.0 0 1 154.82 248.57
  L 127.37 248.57
  A 0.62 0.62 0.0 0 1 126.75 247.95
  L 126.75 191.97
  A 0.62 0.62 0.0 0 1 127.37 191.35
  Z"
/>
<path fill="#ffffff" d="
  M 263.48 191.85
  L 263.48 196.98
  A 0.53 0.53 0.0 0 1 262.95 197.51
  L 240.60 197.51
  A 0.53 0.53 0.0 0 0 240.07 198.04
  L 240.07 216.33
  A 0.53 0.53 0.0 0 0 240.60 216.86
  L 262.92 216.86
  A 0.53 0.53 0.0 0 1 263.45 217.39
  L 263.45 222.06
  A 0.53 0.53 0.0 0 1 262.92 222.59
  L 240.59 222.59
  A 0.53 0.53 0.0 0 0 240.06 223.12
  L 240.06 241.81
  A 0.53 0.53 0.0 0 0 240.59 242.34
  L 262.93 242.34
  A 0.53 0.53 0.0 0 1 263.46 242.87
  L 263.46 248.04
  A 0.53 0.53 0.0 0 1 262.93 248.57
  L 233.69 248.57
  A 0.53 0.53 0.0 0 1 233.16 248.04
  L 233.16 191.85
  A 0.53 0.53 0.0 0 1 233.69 191.32
  L 262.95 191.32
  A 0.53 0.53 0.0 0 1 263.48 191.85
  Z"
/>
<path fill="#83c22d" d="
  M 330.57 248.57
  Q 329.53 248.57 327.79 248.58
  A 0.72 0.72 0.0 0 1 327.07 247.86
  L 326.96 198.41
  A 0.65 0.65 0.0 0 0 326.31 197.77
  L 311.59 197.80
  A 0.97 0.97 0.0 0 1 310.62 196.83
  L 310.61 192.23
  A 0.85 0.85 0.0 0 1 311.45 191.37
  Q 320.78 191.25 330.45 191.20
  Q 340.12 191.21 349.45 191.29
  A 0.85 0.85 0.0 0 1 350.30 192.14
  L 350.31 196.74
  A 0.97 0.97 0.0 0 1 349.34 197.72
  L 334.61 197.75
  A 0.65 0.65 0.0 0 0 333.97 198.40
  L 334.08 247.85
  A 0.72 0.72 0.0 0 1 333.36 248.57
  Q 331.62 248.57 330.57 248.57
  Z"
/>
<path fill="#ffffff" d="
  M 42.36 194.47
  Q 57.88 194.70 63.05 195.67
  C 75.22 197.96 76.02 217.75 65.66 223.26
  C 61.58 225.43 53.62 225.10 48.63 224.92
  A 0.56 0.56 0.0 0 0 48.05 225.48
  L 48.05 249.09
  A 0.72 0.72 0.0 0 1 47.33 249.81
  L 42.40 249.81
  A 0.77 0.77 0.0 0 1 41.63 249.04
  L 41.63 195.19
  A 0.72 0.72 0.0 0 1 42.36 194.47
  Z
  M 48.07 201.13
  L 48.01 218.59
  A 0.33 0.33 0.0 0 0 48.34 218.92
  L 56.97 218.95
  A 8.72 7.60 0.2 0 0 65.71 211.38
  L 65.73 208.46
  A 8.72 7.60 0.2 0 0 57.03 200.83
  L 48.40 200.80
  A 0.33 0.33 0.0 0 0 48.07 201.13
  Z"
/>
<circle fill="#f3ba4a" cx="380.04" cy="219.95" r="22.18"/>
<path fill="#015480" d="
  M 48.07 201.13
  A 0.33 0.33 0.0 0 1 48.40 200.80
  L 57.03 200.83
  A 8.72 7.60 0.2 0 1 65.73 208.46
  L 65.71 211.38
  A 8.72 7.60 0.2 0 1 56.97 218.95
  L 48.34 218.92
  A 0.33 0.33 0.0 0 1 48.01 218.59
  L 48.07 201.13
  Z"
/>
<path fill="#015480" d="
  M 84.40 224.41
  L 92.81 205.06
  A 0.46 0.46 0.0 0 1 93.65 205.06
  L 102.12 224.38
  A 0.46 0.46 0.0 0 1 101.70 225.03
  L 84.82 225.06
  A 0.46 0.46 0.0 0 1 84.40 224.41
  Z"
/>
<rect fill="#ffffff" x="339.81" y="257.19" width="2.42" height="23.98" rx="1.15"/>
<ellipse fill="#ffffff" cx="0.00" cy="0.00" transform="translate(347.06,259.29) rotate(-86.9)" rx="2.08" ry="1.35"/>
<rect fill="#ffffff" x="-1.18" y="-2.01" transform="translate(386.31,259.23) rotate(3.1)" width="2.36" height="4.02" rx="0.95"/>
<path fill="#05a6e4" d="
  M 315.09 273.02
  Q 314.69 273.11 313.81 272.93
  Q 303.50 270.86 294.62 269.91
  Q 269.07 267.19 258.62 266.37
  C 253.96 266.00 246.77 266.06 241.79 265.90
  Q 218.15 265.11 192.73 269.92
  Q 178.60 272.59 162.70 275.39
  Q 144.28 278.64 132.48 279.49
  Q 113.41 280.87 98.26 280.15
  Q 90.91 279.80 76.97 277.83
  Q 54.82 274.69 34.19 267.15
  A 0.32 0.32 0.0 0 1 33.99 266.76
  L 34.00 266.75
  A 0.35 0.35 0.0 0 1 34.43 266.50
  Q 49.47 270.26 71.99 272.54
  Q 96.59 275.03 120.00 273.05
  Q 122.95 272.81 138.67 270.60
  C 158.94 267.76 181.48 263.59 198.16 260.77
  C 205.49 259.53 212.91 258.90 219.25 258.50
  Q 250.59 256.51 278.52 262.24
  Q 286.43 263.86 304.91 268.96
  Q 308.40 269.92 310.05 270.64
  Q 313.73 272.23 315.09 272.56
  A 0.24 0.24 0.0 0 1 315.09 273.02
  Z"
/>
<path fill="#ffffff" d="
  M 375.16 266.51
  A 0.81 0.81 0.0 0 0 374.08 265.77
  Q 372.72 266.24 372.20 265.82
  Q 370.90 264.79 372.17 264.19
  Q 373.16 263.72 374.22 264.14
  A 0.68 0.68 0.0 0 0 375.15 263.52
  L 375.23 259.56
  A 1.12 1.12 0.0 0 1 376.41 258.47
  L 376.43 258.47
  A 1.32 1.31 3.1 0 1 377.57 259.73
  L 377.68 263.35
  A 0.67 0.67 0.0 0 0 378.34 264.00
  L 381.92 264.07
  A 0.70 0.70 0.0 0 1 382.60 264.90
  L 382.53 265.14
  A 1.02 1.01 7.4 0 1 381.55 265.89
  L 378.45 265.89
  A 0.82 0.82 0.0 0 0 377.63 266.71
  L 377.63 277.56
  A 1.70 1.70 0.0 0 0 379.33 279.26
  L 381.83 279.26
  A 0.82 0.82 0.0 0 1 382.65 280.08
  L 382.65 280.45
  A 0.60 0.59 -5.3 0 1 382.16 281.03
  C 378.62 281.69 375.13 281.47 375.18 276.75
  Q 375.27 270.01 375.16 266.51
  Z"
/>
<path fill="#ffffff" d="
  M 321.97 273.07
  A 1.64 1.64 0.0 0 0 320.62 275.63
  L 321.07 276.29
  A 6.19 6.17 -12.1 0 0 326.04 279.49
  Q 331.98 279.92 333.89 276.45
  A 1.53 1.52 -67.9 0 1 335.63 275.71
  L 335.87 275.78
  A 0.72 0.71 23.8 0 1 336.29 276.84
  C 333.06 282.04 325.63 283.21 321.21 279.41
  C 316.17 275.08 317.73 264.40 325.47 263.81
  C 328.64 263.57 332.12 263.49 334.40 265.86
  Q 336.95 268.51 336.80 271.86
  A 1.26 1.26 0.0 0 1 335.54 273.07
  L 321.97 273.07
  Z
  M 320.73 271.12
  L 334.43 271.26
  A 0.11 0.11 0.0 0 0 334.54 271.15
  L 334.54 271.13
  A 5.53 5.13 0.6 0 0 329.07 265.95
  L 326.21 265.92
  A 5.53 5.13 0.6 0 0 320.62 270.99
  L 320.62 271.01
  A 0.11 0.11 0.0 0 0 320.73 271.12
  Z"
/>
<rect fill="#ffffff" x="-1.18" y="-8.60" transform="translate(347.13,272.49) rotate(0.1)" width="2.36" height="17.20" rx="0.84"/>
<path fill="#ffffff" d="
  M 354.94 265.65
  Q 358.89 262.86 364.21 263.91
  Q 367.43 264.54 368.81 266.95
  C 372.08 272.63 370.54 280.17 363.25 281.40
  Q 358.41 282.22 354.95 278.88
  A 0.35 0.35 0.0 0 0 354.36 279.13
  L 354.36 286.74
  A 1.00 0.99 -0.3 0 1 353.37 287.73
  L 353.11 287.73
  A 1.25 1.24 0.7 0 1 351.88 286.48
  L 351.94 264.84
  A 0.98 0.98 0.0 0 1 353.62 264.15
  Q 354.04 264.57 354.15 265.31
  A 0.51 0.51 0.0 0 0 354.94 265.65
  Z
  M 354.8164 269.0235
  A 7.29 6.97 -150.8 0 0 357.7796 278.6643
  A 7.29 6.97 -150.8 0 0 367.5436 276.1365
  A 7.29 6.97 -150.8 0 0 364.5804 266.4957
  A 7.29 6.97 -150.8 0 0 354.8164 269.0235
  Z"
/>
<rect fill="#ffffff" x="-1.18" y="-8.64" transform="translate(386.27,272.50) rotate(-0.2)" width="2.36" height="17.28" rx="0.93"/>
<path fill="#ffffff" d="
  M 392.54 272.83
  C 392.72 277.48 395.28 279.78 399.79 279.43
  C 403.50 279.15 404.02 278.63 406.13 275.45
  C 406.41 275.04 407.03 274.72 407.52 274.81
  A 0.89 0.83 -76.6 0 1 408.15 275.91
  Q 407.53 278.18 405.31 279.98
  A 3.49 3.17 -72.5 0 1 404.47 280.47
  Q 399.80 282.34 394.74 280.79
  C 391.42 279.76 390.34 276.28 390.21 272.92
  C 390.08 269.56 390.88 266.00 394.12 264.72
  Q 399.04 262.78 403.84 264.28
  A 3.49 3.17 68.1 0 1 404.72 264.70
  Q 407.07 266.33 407.86 268.54
  A 0.89 0.83 72.2 0 1 407.32 269.69
  C 406.84 269.82 406.20 269.54 405.88 269.16
  C 403.53 266.15 402.98 265.67 399.25 265.68
  C 394.73 265.69 392.36 268.17 392.54 272.83
  Z"
/>
<path fill="#015480" d="
  M 320.73 271.12
  A 0.11 0.11 0.0 0 1 320.62 271.01
  L 320.62 270.99
  A 5.53 5.13 0.6 0 1 326.21 265.92
  L 329.07 265.95
  A 5.53 5.13 0.6 0 1 334.54 271.13
  L 334.54 271.15
  A 0.11 0.11 0.0 0 1 334.43 271.26
  L 320.73 271.12
  Z"
/>
<ellipse fill="#015480" cx="0.00" cy="0.00" transform="translate(361.18,272.58) rotate(-150.8)" rx="7.29" ry="6.97"/>
</svg>
